inDegrees=yes
name=ik_lifting_orientations
DataType=double
version=3
OpenSimVersion=4.5-2024-01-10-34fd6af
endheader
time	pelvis_tilt	pelvis_list	pelvis_rotation	pelvis_tx	pelvis_ty	pelvis_tz	hip_flexion_r	hip_adduction_r	hip_rotation_r	knee_angle_r	knee_angle_r_beta	ankle_angle_r	subtalar_angle_r	mtp_angle_r	hip_flexion_l	hip_adduction_l	hip_rotation_l	knee_angle_l	knee_angle_l_beta	ankle_angle_l	subtalar_angle_l	mtp_angle_l	lumbar_extension	lumbar_bending	lumbar_rotation	arm_flex_r	arm_add_r	arm_rot_r	elbow_flex_r	pro_sup_r	wrist_flex_r	wrist_dev_r	arm_flex_l	arm_add_l	arm_rot_l	elbow_flex_l	pro_sup_l	wrist_flex_l	wrist_dev_l
1.39	-5.457183523825853	21.42033290800136	-78.33540811055727	0	0.9399999998679526	0	44.99826728976682	-10.0080772529041	0	59.99906997767464	1.047181319244903	-5.001071485124493	0	0	44.99826728976682	-10.0080772529041	0	59.99906997767464	1.047181319244903	-5.001071485124493	0	0	-35.10485416383395	12.21904637124577	-2.879359159206122	56.34267259303576	-2.443412694499667	5.987948582354116	6.352890254486478	0.7564963286473999	0	0	0	-13.09160986972003	0	89.25835904292111	0.7564963286473999	0	0
1.4	-5.433786194359763	21.30230984612111	-78.34690243792208	0	0.9399999998679526	0	44.99826781484668	-10.00806893797212	0	59.99907023806134	1.047181323789508	-5.001070053868844	0	0	44.99826781484668	-10.00806893797212	0	59.99907023806134	1.047181323789508	-5.001070053868844	0	0	-34.8873737220441	12.28181060872783	-3.004733926917912	55.62561972181454	-2.457677971122845	6.009878312712575	6.818600349355847	0.7563354276571893	0	0	0	-13.09191077988623	0	89.25851674653431	0.7563354276571893	0	0
1.41	-5.416711898253797	21.16720770722358	-78.35478926945919	0	0.9399999998679526	0	44.9982683124282	-10.00806096143567	0	59.99907048226081	1.047181328051593	-5.001068677943747	0	0	44.9982683124282	-10.00806096143567	0	59.99907048226081	1.047181328051593	-5.001068677943747	0	0	-34.63391469401281	12.36368922492112	-3.082936647687013	54.82156127256147	-2.535093263321685	6.18576255661783	7.460924929970211	0.7561835554791627	0	0	0	-13.09219384573823	0	89.2586656007508	0.7561835554791627	0	0
1.42	-5.351669906819597	20.991727089154	-78.42909082456593	0	0.9399999998679526	0	44.99826878484622	-10.00805336854911	0	59.99907071351546	1.047181332087748	-5.001067367752312	0	0	44.99826878484622	-10.00805336854911	0	59.99907071351546	1.047181332087748	-5.001067367752312	0	0	-34.30824310846741	12.35881609878918	-3.103413215129281	53.88613973464842	-2.655451219986688	6.306200052680929	8.114775806695729	0.756039498333948	0	0	0	-13.09246212720062	0	89.25880679523213	0.756039498333948	0	0
1.43	-5.254718340261792	20.83963152856471	-78.62717449865687	0	0.9399999998679526	0	44.99826950897423	-10.00804160727351	0	59.9990710648048	1.047181338218904	-5.00106533458263	0	0	44.99826950897423	-10.00804160727351	0	59.9990710648048	1.047181338218904	-5.00106533458263	0	0	-33.95657623523947	12.20344101082718	-3.083110600804808	52.95048034790051	-2.780798619195203	6.411944838433445	9.033749912776413	0.7558194367754589	0	0	0	-13.09287075829096	0	89.25902248378499	0.7558194367754589	0	0
1.44	-5.079737089601471	20.51572978065286	-78.96715991456682	0	0.9399999998679526	0	44.99827000793262	-10.00803352519075	0	59.9990713072324	1.047181342450064	-5.001063938458031	0	0	44.99827000793262	-10.00803352519075	0	59.9990713072324	1.047181342450064	-5.001063938458031	0	0	-33.72699765044806	12.00966153813623	-3.100829529086048	52.05615990818981	-3.014894924101139	6.54062747828327	9.925322119186669	0.7556677019241179	0	0	0	-13.09315266751962	0	89.25917120340169	0.7556677019241179	0	0
1.45	-4.87740219174758	20.11280127893199	-79.3542971172912	0	0.9399999998679526	0	44.99827056204779	-10.00802455814952	0	59.99907157650948	1.047181347149835	-5.001062390030429	0	0	44.99827056204779	-10.00802455814952	0	59.99907157650948	1.047181347149835	-5.001062390030429	0	0	-33.53841312960117	11.766217842698	-3.023496249161771	51.03628843989775	-3.230008631941759	6.422357188123795	10.93464375766072	0.7554991698232785	0	0	0	-13.09346581450517	0	89.25933638647757	0.7554991698232785	0	0
1.46	-4.659258212979301	19.65422410452699	-79.69313312099555	0	0.9399999998679526	0	44.99827147644573	-10.00800970844301	0	59.99907201936215	1.047181354879072	-5.001059824524281	0	0	44.99827147644573	-10.00800970844301	0	59.99907201936215	1.047181354879072	-5.001059824524281	0	0	-33.34214227699663	11.49505471997774	-3.050687700305871	50.08460418659472	-3.428723603364829	6.196327398411891	11.83554804074851	0.7552214006836754	0	0	0	-13.09398138430454	0	89.25960863586164	0.7552214006836754	0	0
1.47	-4.484357994726789	19.16124094838323	-79.96746595581695	0	0.9399999998679526	0	44.99827203417681	-10.00800067602201	0	59.99907228986447	1.047181359600229	-5.00105826527699	0	0	44.99827203417681	-10.00800067602201	0	59.99907228986447	1.047181359600229	-5.00105826527699	0	0	-33.25713158306893	11.33772662480978	-3.098869416425063	49.30378225420254	-3.619418893011797	6.096597944148571	12.75796125367733	0.7550518672502214	0	0	0	-13.09429621994255	0	89.25977480037172	0.7550518672502214	0	0
1.48	-4.309920350826171	18.68164679868993	-80.19135005112376	0	0.9399999998679526	0	44.99827265638477	-10.00799061564615	0	59.99907259184484	1.04718136487078	-5.00105652946187	0	0	44.99827265638477	-10.00799061564615	0	59.99907259184484	1.04718136487078	-5.00105652946187	0	0	-32.98185177266657	11.1979984255816	-3.230765759271708	48.31080548023996	-3.702191805372477	5.945414318523642	13.42745574102125	0.7548626707063411	0	0	0	-13.09464766349859	0	89.25996023725251	0.7548626707063411	0	0
1.49	-4.181382710237682	18.1903520761115	-80.32439411594829	0	0.9399999998679526	0	44.99827331495312	-10.00797995234206	0	59.9990729109129	1.047181370439568	-5.001054689489398	0	0	44.99827331495312	-10.00797995234206	0	59.9990729109129	1.047181370439568	-5.001054689489398	0	0	-32.67458842527071	11.10904101531893	-3.469325650603476	47.37608222816788	-3.820754798593404	5.968758255513001	14.48534114914599	0.7546625376942739	0	0	0	-13.09501922338739	0	89.26015639327453	0.7546625376942739	0	0
1.5	-4.004587976218227	17.62019727210833	-80.59875914043714	0	0.9399999998679526	0	44.99827381525536	-10.00797187686764	0	59.99907315376446	1.047181374678128	-5.001053297166207	0	0	44.99827381525536	-10.00797187686764	0	59.99907315376446	1.047181374678128	-5.001053297166207	0	0	-32.91501227458186	10.93224638293928	-3.435854104522549	46.90929457672647	-4.022487973228424	6.010327553254497	15.59329269239713	0.7545103772943175	0	0	0	-13.09530190651364	0	89.26030552998402	0.7545103772943175	0	0
1.51	-3.867718483780652	17.12615077322794	-80.76041059599658	0	0.9399999998679526	0	44.99827431528175	-10.00796380253432	0	59.99907339626763	1.047181378910607	-5.001051905179429	0	0	44.99827431528175	-10.00796380253432	0	59.99907339626763	1.047181378910607	-5.001051905179429	0	0	-32.32655311111834	10.8176219087471	-3.725220141539785	45.76213849741243	-4.178742384046085	6.260432297821739	16.60011288548436	0.7543583426010646	0	0	0	-13.09558428301938	0	89.26045454348473	0.7543583426010646	0	0
1.52	-3.742049745995648	16.58063136673079	-80.82577953871383	0	0.9399999998679526	0	44.99827483943725	-10.00795534389088	0	59.99907365047172	1.047181383347305	-5.001050447359226	0	0	44.99827483943725	-10.00795534389088	0	59.99907365047172	1.047181383347305	-5.001050447359226	0	0	-31.76719221252787	10.75413047762518	-4.07969782388543	44.62131864113985	-4.322096345017554	6.514957123805734	17.56298346722387	0.7541989614765366	0	0	0	-13.09588031358282	0	89.26061075743046	0.7541989614765366	0	0
1.53	-3.671751888784522	15.95844015192427	-80.78833170401975	0	0.9399999998679526	0	44.99827526078187	-10.00794856344038	0	59.99907385518222	1.047181386920177	-5.001049279579609	0	0	44.99827526078187	-10.00794856344038	0	59.99907385518222	1.047181386920177	-5.001049279579609	0	0	-31.95372419523959	10.79948970472351	-4.241371641561784	44.15298683831242	-4.51908669162838	6.691211135093349	18.56571919569049	0.7540707457647182	0	0	0	-13.09611860681861	0	89.26073642527471	0.7540707457647182	0	0
1.54	-3.585269190667677	15.35128348693	-80.80226439118975	0	0.9399999998679526	0	44.99827594476398	-10.0079375306999	0	59.99907418668582	1.047181392706007	-5.001047378924198	0	0	44.99827594476398	-10.0079375306999	0	59.99907418668582	1.047181392706007	-5.001047378924198	0	0	-31.56286682705636	10.82898274972379	-4.597424851422469	43.10988637532447	-4.708607755495962	6.998517218165309	19.64982333130194	0.7538627907169471	0	0	0	-13.09650480191079	0	89.260940247896	0.7538627907169471	0	0
1.55	-3.47542185838486	14.72605646570032	-80.83123072493345	0	0.9399999998679526	0	44.9982764727751	-10.00792903067944	0	59.99907444284077	1.047181397176754	-5.001045915455474	0	0	44.9982764727751	-10.00792903067944	0	59.99907444284077	1.047181397176754	-5.001045915455474	0	0	-31.26260444410261	10.78626590818847	-4.9271578168725	42.19683454468194	-4.798498693763412	7.197165794197386	20.59674477293181	0.7537021844538112	0	0	0	-13.0968031710805	0	89.26109766263527	0.7537021844538112	0	0
1.56	-3.375978427145824	13.99343081386709	-80.84447658119647	0	0.9399999998679526	0	44.99827713024984	-10.00791844503712	0	59.99907476157436	1.047181402739704	-5.001044093210262	0	0	44.99827713024984	-10.00791844503712	0	59.99907476157436	1.047181402739704	-5.001044093210262	0	0	-30.94035047101086	10.79551657199634	-5.302973323710977	41.25045603161842	-4.955465045978036	7.546654133564777	21.5753537132101	0.7535022390716695	0	0	0	-13.09717455053431	0	89.26129363475728	0.7535022390716695	0	0
1.57	-3.226188827282277	13.23662146132365	-80.9930093000149	0	0.9399999998679526	0	44.99827757942825	-10.0079112331858	0	59.99907497969417	1.047181406546613	-5.001042852635107	0	0	44.99827757942825	-10.0079112331858	0	59.99907497969417	1.047181406546613	-5.001042852635107	0	0	-30.81419778371478	10.67515126393726	-5.607819125755385	40.5018572042738	-5.213605484910451	7.985881603577306	22.44035965149225	0.753365541162852	0	0	0	-13.09742860245852	0	89.26142761624291	0.753365541162852	0	0
1.58	-3.105875352981387	12.50140355436605	-81.12205571039283	0	0.9399999998679526	0	44.9982781282928	-10.00790241446326	0	59.9990752459312	1.047181411193326	-5.001041335690351	0	0	44.9982781282928	-10.00790241446326	0	59.9990752459312	1.047181411193326	-5.001041335690351	0	0	-30.5923087540439	10.55071875855388	-5.841958896827514	39.71667036285425	-5.654617249901362	8.240428048730626	23.2977160597743	0.7531985653875979	0	0	0	-13.09773882487944	0	89.26159127392145	0.7531985653875979	0	0
1.59	-2.939926647878225	11.76519490643523	-81.3307135149127	0	0.9399999998679526	0	44.99827864619003	-10.00789410086607	0	59.99907549719762	1.047181415578752	-5.001039906133217	0	0	44.99827864619003	-10.00789410086607	0	59.99907549719762	1.047181415578752	-5.001039906133217	0	0	-30.41883129168509	10.36622318907677	-6.034373362701268	39.0904458519844	-5.965510964968837	8.449177693739616	23.99213119625928	0.7530409877830783	0	0	0	-13.09803161610425	0	89.26174572018724	0.7530409877830783	0	0
1.6	-2.781067147051333	11.0222224780722	-81.59058462469123	0	0.9399999998679526	0	44.99827906750009	-10.00788735063403	0	59.99907570181441	1.047181419149989	-5.001038746018829	0	0	44.99827906750009	-10.00788735063403	0	59.99907570181441	1.047181419149989	-5.001038746018829	0	0	-30.22629947991739	10.06832647040101	-6.10272919190473	38.39348923046538	-6.265089867721883	8.57418252680686	24.61905486749074	0.752912739274182	0	0	0	-13.09826999980911	0	89.26187142017744	0.752912739274182	0	0
1.61	-2.657091066686876	10.3532982697416	-81.83276488875862	0	0.9399999998679526	0	44.99827971801045	-10.00787691289057	0	59.99907601719087	1.047181424654346	-5.001036951993489	0	0	44.99827971801045	-10.00787691289057	0	59.99907601719087	1.047181424654346	-5.001036951993489	0	0	-29.81513205181932	9.630957906842635	-6.009433484215835	37.49263582599328	-6.557402380160219	8.495541580698802	25.24234606815618	0.7527148414642744	0	0	0	-13.09863764578342	0	89.26206538541676	0.7527148414642744	0	0
1.62	-2.52996116210999	9.626775885872993	-81.92589386715572	0	0.9399999998679526	0	44.99828057766471	-10.00786312199936	0	59.99907643369733	1.047181431923756	-5.001034582336777	0	0	44.99828057766471	-10.00786312199936	0	59.99907643369733	1.047181431923756	-5.001034582336777	0	0	-29.48944291584421	9.309894559518716	-6.059833894668153	36.67525923552873	-6.916599926153823	8.631540244553738	25.94983048449299	0.7524533566467224	0	0	0	-13.09912334376101	0	89.26232167408034	0.7524533566467224	0	0
